#!OML:ASF E:\emotionWalksFemale\Project 1\Capture day 1\Session 1\Female1.ASF
:FULLY-SPECIFIED
:DEGREES
340
root 8.71606 15.5133 21.9924 183.165 3.64535 -179.551
lowerback 7.42735 0.200729 0.720024
upperback -4.49529 0.461663 0.306334
thorax -8.93065 0.227561 -0.154956
lowerneck -12.6395 -1.28833 -5.45773
upperneck 16.6615 -1.45496 6.04415
head 7.2734 -0.358308 2.75196
rclavicle 8.1129e-015 -6.85807e-015
rhumerus -48.5058 9.89115 -64.8847
rradius 29.133
rwrist 25.8305
rhand 4.88925 -54.3937
rfingers 7.12502
rthumb 30.2643 -81.9328
lclavicle 8.1129e-015 -6.85807e-015
lhumerus -46.2397 6.31425 52.4195
lradius 28.9699
lwrist -23.7774
lhand 5.88135 -25.919
lfingers 7.12502
lthumb 31.2103 1.44222
rfemur -1.54082 22.2962 24.2098
rtibia 16.6819
rfoot -16.942 -31.5528
rtoes -3.76463
lfemur -5.86365 -22.3848 -23.4476
ltibia 22.8559
lfoot -23.0066 25.2476
ltoes -34.1097
341
root 8.71717 15.5155 21.9966 183.267 3.77387 -179.559
lowerback 7.4245 0.230282 0.681802
upperback -4.48382 0.494365 0.286852
thorax -8.91629 0.244778 -0.158926
lowerneck -12.4447 -1.26474 -5.3438
upperneck 16.4179 -1.43818 5.95605
head 7.15748 -0.358017 2.7011
rclavicle -7.20594e-016 -2.48481e-015
rhumerus -48.5328 10.2152 -64.4735
rradius 29.121
rwrist 25.9224
rhand 5.39661 -54.5024
rfingers 7.12502
rthumb 30.7482 -81.9516
lclavicle -7.20594e-016 -2.48481e-015
lhumerus -46.2648 5.88798 51.816
lradius 29.1788
lwrist -23.1693
lhand 5.54261 -26.0344
lfingers 7.12502
lthumb 30.8874 1.38846
rfemur -1.68846 22.3356 24.1295
rtibia 16.6644
rfoot -17.1632 -31.3547
rtoes -2.68334
lfemur -5.98676 -22.2981 -23.4023
ltibia 22.8598
lfoot -23.1059 25.1578
ltoes -33.6593
342
root 8.71727 15.5157 21.9997 183.335 3.88114 -179.496
lowerback 7.45646 0.238991 0.737394
upperback -4.44306 0.511757 0.309289
thorax -8.8904 0.249797 -0.16892
lowerneck -12.3107 -1.27509 -5.33709
upperneck 16.1614 -1.44756 5.86475
head 7.05082 -0.378392 2.66452
rclavicle -1.37907e-015 1.78906e-015
rhumerus -48.4767 10.644 -64.0961
rradius 29.0773
rwrist 25.8905
rhand 5.88626 -54.7873
rfingers 7.12502
rthumb 31.2149 -82.1476
lclavicle -1.37907e-015 1.78906e-015
lhumerus -46.2781 5.49969 51.2517
lradius 29.2816
lwrist -22.6623
lhand 5.47284 -26.1713
lfingers 7.12502
lthumb 30.8209 1.26415
rfemur -1.78673 22.2996 24.1405
rtibia 16.6367
rfoot -17.232 -31.1592
rtoes -2.48342
lfemur -6.07975 -22.2267 -23.3039
ltibia 22.8789
lfoot -23.0815 25.1657
ltoes -33.5259
343
root 8.71849 15.517 22.0042 183.381 3.99745 -179.427
lowerback 7.53273 0.248921 0.751415
upperback -4.3832 0.526252 0.347045
thorax -8.87028 0.255869 -0.139047
lowerneck -12.1149 -1.28323 -5.28236
upperneck 15.8054 -1.45415 5.69814
head 6.90062 -0.403832 2.59428
rclavicle -8.13775e-016 -9.83984e-015
rhumerus -48.4591 11.2326 -63.8578
rradius 29.1296
rwrist 25.633
rhand 6.35445 -55.0734
rfingers 7.12502
rthumb 31.661 -82.3468
lclavicle -8.13775e-016 -9.83984e-015
lhumerus -46.2902 5.65665 50.3336
lradius 29.0395
lwrist -23.3727
lhand 4.25961 -27.6706
lfingers 7.12502
lthumb 29.6635 -0.0228864
rfemur -1.85057 22.2261 24.1709
rtibia 16.5699
rfoot -17.03 -31.0346
rtoes -3.05638
lfemur -6.18281 -22.0668 -23.1913
ltibia 22.936
lfoot -23.0251 25.1404
ltoes -33.7314
344
root 8.72041 15.519 22.0101 183.466 4.1255 -179.37
lowerback 7.58419 0.270753 0.733608
upperback -4.32113 0.55108 0.363736
thorax -8.83311 0.268211 -0.115016
lowerneck -11.8763 -1.2636 -5.07703
upperneck 15.3688 -1.45207 5.53103
head 6.71594 -0.416931 2.49933
rclavicle -5.96354e-015 7.35503e-015
rhumerus -48.521 11.8229 -63.6698
rradius 29.1746
rwrist 25.4444
rhand 6.6224 -55.1666
rfingers 7.12502
rthumb 31.9162 -82.3893
lclavicle -5.96354e-015 7.35503e-015
lhumerus -46.3103 5.96752 49.2008
lradius 28.4036
lwrist -25.1251
lhand 1.73738 -30.5091
lfingers 7.12502
lthumb 27.2534 -2.45822
rfemur -1.97362 22.2387 24.1647
rtibia 16.4748
rfoot -16.745 -30.9489
rtoes -3.1119
lfemur -6.33358 -21.8357 -23.0773
ltibia 23.0154
lfoot -23.1061 25.0768
ltoes -34.0047
345
root 8.72078 15.5212 22.0143 183.535 4.25234 -179.328
lowerback 7.57919 0.285776 0.756103
upperback -4.21692 0.566833 0.357634
thorax -8.71644 0.272666 -0.135781
lowerneck -11.6973 -1.23963 -4.84064
upperneck 14.9554 -1.45331 5.40236
head 6.55003 -0.425451 2.41261
rclavicle 1.92573e-015 -1.98785e-015
rhumerus -48.5471 12.4806 -63.5937
rradius 29.2111
rwrist 25.1665
rhand 6.77373 -55.2875
rfingers 7.12502
rthumb 32.0603 -82.4813
lclavicle 1.92573e-015 -1.98785e-015
lhumerus -46.1345 5.52726 48.9335
lradius 28.9499
lwrist -23.2465
lhand 4.43342 -28.386
lfingers 7.12502
lthumb 29.8294 -0.767949
rfemur -2.07505 22.1819 24.1392
rtibia 16.3742
rfoot -16.4673 -30.7857
rtoes -3.42618
lfemur -6.45116 -21.6867 -23.007
ltibia 23.0936
lfoot -23.1121 25.1894
ltoes -34.4487
346
root 8.72116 15.5238 22.0187 183.591 4.31101 -179.278
lowerback 7.58132 0.256172 0.780467
upperback -4.10539 0.526168 0.390143
thorax -8.597 0.25098 -0.108358
lowerneck -11.692 -1.21483 -4.79622
upperneck 14.7479 -1.41897 5.31054
head 6.48016 -0.420182 2.37586
rclavicle 2.45841e-015 2.78299e-015
rhumerus -48.4571 13.165 -63.4566
rradius 29.2106
rwrist 25.0571
rhand 7.02077 -55.2352
rfingers 7.12502
rthumb 32.2955 -82.3814
lclavicle 2.45841e-015 2.78299e-015
lhumerus -46.1355 6.16929 47.6902
lradius 27.9742
lwrist -25.7595
lhand 1.22421 -31.3426
lfingers 7.12502
lthumb 26.7624 -3.21563
rfemur -2.14552 22.0741 24.144
rtibia 16.2796
rfoot -16.2564 -30.6531
rtoes -3.95619
lfemur -6.57664 -21.5816 -22.9137
ltibia 23.1749
lfoot -23.0329 25.2087
ltoes -34.7844
347
root 8.72262 15.5268 22.0257 183.697 4.32581 -179.192
lowerback 7.68076 0.204573 0.820186
upperback -4.06373 0.46414 0.443534
thorax -8.61081 0.21926 -0.0652729
lowerneck -11.857 -1.15731 -5.00389
upperneck 14.7094 -1.32406 5.44501
head 6.49339 -0.376351 2.46172
rclavicle -1.39833e-014 -1.18277e-014
rhumerus -48.4463 13.895 -63.2831
rradius 29.218
rwrist 25.0945
rhand 7.48047 -55.1402
rfingers 7.12502
rthumb 32.7329 -82.1964
lclavicle -1.39833e-014 -1.18277e-014
lhumerus -46.2107 5.34059 47.7193
lradius 28.705
lwrist -23.8672
lhand 3.52542 -29.0114
lfingers 7.12502
lthumb 28.9625 -1.24117
rfemur -2.29173 21.9882 24.1774
rtibia 16.2315
rfoot -16.2411 -30.5117
rtoes -4.06197
lfemur -6.77727 -21.3747 -22.7302
ltibia 23.2336
lfoot -22.9006 25.0579
ltoes -35.0997
348
root 8.7243 15.5296 22.033 183.811 4.43797 -179.126
lowerback 7.88274 0.204847 0.833586
upperback -4.08151 0.468703 0.45468
thorax -8.74868 0.220062 -0.0627133
lowerneck -12.0069 -1.11126 -5.28112
upperneck 14.6816 -1.25253 5.7231
head 6.50951 -0.334457 2.60391
rclavicle 7.25098e-015 9.0447e-015
rhumerus -48.5605 14.5956 -63.197
rradius 29.2196
rwrist 25.1154
rhand 8.08995 -55.3286
rfingers 7.12502
rthumb 33.3125 -82.2623
lclavicle 7.25098e-015 9.0447e-015
lhumerus -46.3625 4.53034 47.453
lradius 29.1494
lwrist -22.6828
lhand 4.93593 -28.2598
lfingers 7.12502
lthumb 30.3089 -0.728878
rfemur -2.47504 21.9016 24.1624
rtibia 16.2253
rfoot -16.3303 -30.2231
rtoes -3.79148
lfemur -6.97273 -21.1063 -22.5765
ltibia 23.266
lfoot -22.8529 24.8913
ltoes -34.8706
349
root 8.72562 15.5327 22.0405 183.907 4.54017 -179.14
lowerback 8.1543 0.203372 0.758033
upperback -4.1278 0.461241 0.457524
thorax -8.95926 0.219819 -0.017469
lowerneck -11.9943 -1.09828 -5.45325
upperneck 14.5686 -1.22167 5.82358
head 6.47098 -0.323782 2.66613
rclavicle -1.37596e-015 -4.17448e-015
rhumerus -48.7004 15.2608 -63.058
rradius 29.232
rwrist 25.1465
rhand 8.52827 -55.6128
rfingers 7.12502
rthumb 33.7292 -82.4562
lclavicle -1.37596e-015 -4.17448e-015
lhumerus -46.556 3.69029 47.3087
lradius 29.9174
lwrist -20.7359
lhand 7.99338 -26.045
lfingers 7.12502
lthumb 33.2207 0.908324
rfemur -2.66601 21.7709 24.0645
rtibia 16.2468
rfoot -16.2947 -29.9632
rtoes -3.55113
lfemur -7.1588 -20.7898 -22.5054
ltibia 23.2953
lfoot -22.9111 24.539
ltoes -34.0348
